{"title":"JOYFUL NOISE XVID CAM INSPiRAL","uid":7015368,"size":1521667292,"categoryP":"video","categoryS":"movies","magnet":"?xt=urn:btih:02062b96d8ec5d94a052029f14f2aa5ee5136caa&amp;dn=JOYFUL+NOISE+XVID+CAM+INSPiRAL&amp;tr=udp%3A%2F%2Ftracker.openbittorrent.com%3A80&amp;tr=udp%3A%2F%2Fopen.demonii.com%3A1337&amp;tr=udp%3A%2F%2Ftracker.coppersurfer.tk%3A6969&amp;tr=udp%3A%2F%2Fexodus.desync.com%3A6969","seeders":0,"leechers":1,"uploader":"HeroMaster","files":-1,"time":1328633240,"description":"JOYFUL NOISE XVID CAM INSPiRAL\n\n\nSource = V+A JOYFUL NOISE...HOKNOWS INC - Thanks Guys \n\n &lt;a href=&quot;\nhttp://www.imdb.com/title/tt1710396/&quot; rel=&quot;nofollow&quot; target=&quot;_NEW&quot;&gt;\nhttp://www.imdb.com/title/tt1710396/&lt;/a&gt;\n\n\nComplete name                            : JOYFUL NOISE CAM INSPiRAL\nFormat                                   : AVI\nFormat/Info                              : Audio Video Interleave\nFile size                                : 1.37 GiB\nDuration                                 : 1h 20mn\nOverall bit rate                         : 2 446 Kbps)\nWriting library                          : VirtualDubMod build 2540/release\n\nVideo\nID                                       : 0\nFormat                                   : MPEG-4 Visual\nFormat profile                           : Advanced Simple@L5\nFormat settings, BVOP                    : 2\nFormat settings, QPel                    : No\nFormat settings, GMC                     : No warppoints\nFormat settings, Matrix                  : Default (H.263)\nMuxing mode                              : Packed bitstream\nCodec ID                                 : XVID\nCodec ID/Hint                            : XviD\nDuration                                 : 1h 20mn\nBit rate                                 : 898 Kbps\nWidth                                    : 720 pixels\nHeight                                   : 320 pixels\nDisplay aspect ratio                     : 2.25:1\nFrame rate                               : 29.970 fps\nColor space                              : YUV\nChroma subsampling                       : 4:2:0\nBit depth                                : 8 bits\nScan type                                : Progressive\nCompression mode                         : Lossy\nBits/(Pixel*Frame)                       : 0.130\nStream size                              : 516 MiB (37%)\nWriting library                          : XviD 64\n\nAudio\nID                                       : 1\nFormat                                   : PCM\nFormat settings, Endianness              : Little\nFormat settings, Sign                    : Signed\nCodec ID                                 : 1\nDuration                                 : 1h 20mn\nBit rate mode                            : Constant\nBit rate                                 : 1 536 Kbps\nChannel(s)                               : 2 channels\nSampling rate                            : 48.0 KHz\nBit depth                                : 16 bits\nStream size                              : 882 MiB (63%)\nInterleave, duration                     : 33 ms (1.00 video frame)\nInterleave, preload duration             : 500 ms\n\nSample - Yes.\n\nNotes - Nice cam again from our old friends HOKNOWS INC, Thanks for the vobs, \nWork done, cropped and re sized,smoothed the video out\nas it really needed it, some slight movement but not to bad, might go to town on \nit and do another version, video would be a 7 audio would be a 7-8 good for a cam!\nThought we would leave this file as an avi rather than rar files, just for a change!\n\n\nPoster:\n\n &lt;a href=&quot;\nhttp://i.imgur.com/U0OLe.jpg&quot; rel=&quot;nofollow&quot; target=&quot;_NEW&quot;&gt;\nhttp://i.imgur.com/U0OLe.jpg&lt;/a&gt;\n\n\nScreens:\n\n &lt;a href=&quot;\nhttp://i.imgur.com/wY8KH.png&quot; rel=&quot;nofollow&quot; target=&quot;_NEW&quot;&gt;\nhttp://i.imgur.com/wY8KH.png&lt;/a&gt;\n\n &lt;a href=&quot;\nhttp://i.imgur.com/mWEUv.png&quot; rel=&quot;nofollow&quot; target=&quot;_NEW&quot;&gt;\nhttp://i.imgur.com/mWEUv.png&lt;/a&gt;\n\n &lt;a href=&quot;\nhttp://i.imgur.com/DYi3E.png&quot; rel=&quot;nofollow&quot; target=&quot;_NEW&quot;&gt;\nhttp://i.imgur.com/DYi3E.png&lt;/a&gt;\n\n\nENJOY!","torrent":{"xt":"urn:btih:02062b96d8ec5d94a052029f14f2aa5ee5136caa","amp;dn":"JOYFUL+NOISE+XVID+CAM+INSPiRAL","amp;tr":["udp%3A%2F%2Ftracker.openbittorrent.com%3A80","udp%3A%2F%2Fopen.demonii.com%3A1337","udp%3A%2F%2Ftracker.coppersurfer.tk%3A6969","udp%3A%2F%2Fexodus.desync.com%3A6969"],"infoHash":"02062b96d8ec5d94a052029f14f2aa5ee5136caa","infoHashBuffer":{"type":"Buffer","data":[2,6,43,150,216,236,93,148,160,82,2,159,20,242,170,94,229,19,108,170]},"announce":[],"urlList":[]}}